<?xml version="1.0" encoding="UTF-8"?>
<!DOCTYPE svg PUBLIC "-//W3C//DTD SVG 1.1//EN" "http://www.w3.org/Graphics/SVG/1.1/DTD/svg11.dtd">
<svg version="1.1" xmlns="http://www.w3.org/2000/svg" xmlns:xlink="http://www.w3.org/1999/xlink" x="0px" y="0px" width="1200" height="1300" viewBox="0, 0, 1200, 1300">
  <g id="Background">
    <rect x="0" y="0" width="1200" height="1300" fill="#000000" fill-opacity="0"/>
  </g>
  <g id="Background"/>
  <g id="Layer 1">
    <path d="M200,500 C144.772,500 100,455.228 100,400 C100,344.772 144.772,300 200,300 C255.228,300 300,344.772 300,400 C300,455.228 255.228,500 200,500 z" fill-opacity="0" stroke="#65A1CF" stroke-width="50"/>
    <g>
      <path d="M200,300 L200,100" fill-opacity="0" stroke="#65A1CF" stroke-width="33"/>
      <g>
        <path d="M200,119.527 C188.954,119.527 180,110.573 180,99.527 C180,88.482 188.954,79.527 200,79.527 C211.046,79.527 220,88.482 220,99.527 C220,110.573 211.046,119.527 200,119.527 z" fill="#65A1CF"/>
        <path d="M200,119.527 C188.954,119.527 180,110.573 180,99.527 C180,88.482 188.954,79.527 200,79.527 C211.046,79.527 220,88.482 220,99.527 C220,110.573 211.046,119.527 200,119.527 z" fill-opacity="0" stroke="#65A1CF" stroke-width="20"/>
      </g>
    </g>
    <g>
      <path d="M200,300 L200,234" fill-opacity="0" stroke="#65A1CF" stroke-width="33"/>
      <g>
        <path d="M200,253.527 C188.954,253.527 180,244.573 180,233.527 C180,222.482 188.954,213.527 200,213.527 C211.046,213.527 220,222.482 220,233.527 C220,244.573 211.046,253.527 200,253.527 z" fill="#65A1CF"/>
        <path d="M200,253.527 C188.954,253.527 180,244.573 180,233.527 C180,222.482 188.954,213.527 200,213.527 C211.046,213.527 220,222.482 220,233.527 C220,244.573 211.046,253.527 200,253.527 z" fill-opacity="0" stroke="#65A1CF" stroke-width="20"/>
      </g>
    </g>
    <g>
      <path d="M200,300 L200,167" fill-opacity="0" stroke="#65A1CF" stroke-width="33"/>
      <g>
        <path d="M200,186.527 C188.954,186.527 180,177.573 180,166.527 C180,155.482 188.954,146.527 200,146.527 C211.046,146.527 220,155.482 220,166.527 C220,177.573 211.046,186.527 200,186.527 z" fill="#65A1CF"/>
        <path d="M200,186.527 C188.954,186.527 180,177.573 180,166.527 C180,155.482 188.954,146.527 200,146.527 C211.046,146.527 220,155.482 220,166.527 C220,177.573 211.046,186.527 200,186.527 z" fill-opacity="0" stroke="#65A1CF" stroke-width="20"/>
      </g>
    </g>
    <g>
      <text transform="matrix(1, 0, 0, 1, 600.5, 122.5)">
        <tspan x="-63.922" y="13.5" font-family="Verdana-Bold" font-size="36" fill="#294270">1st 35</tspan>
      </text>
      <text transform="matrix(1, 0, 0, 1, 600.5, 166.5)">
        <tspan x="-79.558" y="13.5" font-family="Verdana-Bold" font-size="36" fill="#294270">related:</tspan>
      </text>
      <text transform="matrix(1, 0, 0, 1, 600.5, 210.5)">
        <tspan x="-70.452" y="13.5" font-family="Verdana-Bold" font-size="36" fill="#294270">2nd 70</tspan>
      </text>
      <text transform="matrix(1, 0, 0, 1, 600.5, 254.5)">
        <tspan x="-79.373" y="13.5" font-family="Verdana-Bold" font-size="36" fill="#294270">3rd 105</tspan>
      </text>
    </g>
    <g>
      <text transform="matrix(1, 0, 0, 1, 700.5, 790.135)">
        <tspan x="-66.576" y="13.5" font-family="Verdana-Bold" font-size="36" fill="#294270">3rd 20</tspan>
      </text>
      <text transform="matrix(1, 0, 0, 1, 700.5, 834.135)">
        <tspan x="-79.558" y="13.5" font-family="Verdana-Bold" font-size="36" fill="#294270">related:</tspan>
      </text>
      <text transform="matrix(1, 0, 0, 1, 700.5, 878.135)">
        <tspan x="-63.922" y="13.5" font-family="Verdana-Bold" font-size="36" fill="#294270">1st 40</tspan>
      </text>
      <text transform="matrix(1, 0, 0, 1, 700.5, 922.135)">
        <tspan x="-70.452" y="13.5" font-family="Verdana-Bold" font-size="36" fill="#294270">2nd 60</tspan>
      </text>
    </g>
    <g>
      <text transform="matrix(1, 0, 0, 1, 171.2, 956.729)">
        <tspan x="-74.051" y="-8.5" font-family="Verdana-Bold" font-size="36" fill="#294270">2nd 95</tspan>
      </text>
      <text transform="matrix(1, 0, 0, 1, 165.694, 978.729)">
        <tspan x="-79.558" y="13.5" font-family="Verdana-Bold" font-size="36" fill="#294270">related:</tspan>
      </text>
      <text transform="matrix(1, 0, 0, 1, 165.694, 1022.729)">
        <tspan x="-79.373" y="13.5" font-family="Verdana-Bold" font-size="36" fill="#294270">3rd 190</tspan>
      </text>
      <text transform="matrix(1, 0, 0, 1, 165.694, 1066.729)">
        <tspan x="-76.719" y="13.5" font-family="Verdana-Bold" font-size="36" fill="#294270">1st 285</tspan>
      </text>
    </g>
    <path d="M800,500 C744.772,500 700,455.228 700,400 C700,344.772 744.772,300 800,300 C855.228,300 900,344.772 900,400 C900,455.228 855.228,500 800,500 z" fill-opacity="0" stroke="#65A1CF" stroke-width="50"/>
    <g>
      <path d="M896.593,425.882 L1089.778,477.646" fill-opacity="0" stroke="#65A1CF" stroke-width="33"/>
      <g>
        <path d="M1070.916,472.592 C1073.775,461.922 1084.741,455.591 1095.411,458.45 C1106.08,461.309 1112.412,472.275 1109.553,482.945 C1106.694,493.614 1095.727,499.946 1085.058,497.087 C1074.389,494.228 1068.057,483.261 1070.916,472.592 z" fill="#65A1CF"/>
        <path d="M1070.916,472.592 C1073.775,461.922 1084.741,455.591 1095.411,458.45 C1106.08,461.309 1112.412,472.275 1109.553,482.945 C1106.694,493.614 1095.727,499.946 1085.058,497.087 C1074.389,494.228 1068.057,483.261 1070.916,472.592 z" fill-opacity="0" stroke="#65A1CF" stroke-width="20"/>
      </g>
    </g>
    <g>
      <path d="M850,313.398 L883,256.24" fill-opacity="0" stroke="#65A1CF" stroke-width="33"/>
      <g>
        <path d="M873.236,273.151 C863.67,267.628 860.393,255.396 865.916,245.831 C871.439,236.265 883.67,232.987 893.236,238.51 C902.802,244.033 906.08,256.265 900.557,265.831 C895.034,275.396 882.802,278.674 873.236,273.151 z" fill="#65A1CF"/>
        <path d="M873.236,273.151 C863.67,267.628 860.393,255.396 865.916,245.831 C871.439,236.265 883.67,232.987 893.236,238.51 C902.802,244.033 906.08,256.265 900.557,265.831 C895.034,275.396 882.802,278.674 873.236,273.151 z" fill-opacity="0" stroke="#65A1CF" stroke-width="20"/>
      </g>
    </g>
    <g>
      <path d="M893.969,365.798 L1018.948,320.309" fill-opacity="0" stroke="#65A1CF" stroke-width="33"/>
      <g>
        <path d="M1000.599,326.988 C996.821,316.609 1002.173,305.132 1012.552,301.354 C1022.932,297.576 1034.409,302.928 1038.186,313.307 C1041.964,323.687 1036.612,335.164 1026.233,338.942 C1015.853,342.719 1004.377,337.368 1000.599,326.988 z" fill="#65A1CF"/>
        <path d="M1000.599,326.988 C996.821,316.609 1002.173,305.132 1012.552,301.354 C1022.932,297.576 1034.409,302.928 1038.186,313.307 C1041.964,323.687 1036.612,335.164 1026.233,338.942 C1015.853,342.719 1004.377,337.368 1000.599,326.988 z" fill-opacity="0" stroke="#65A1CF" stroke-width="20"/>
      </g>
    </g>
    <path d="M391.897,967.635 C336.669,967.635 291.897,922.864 291.897,867.635 C291.897,812.407 336.669,767.635 391.897,767.635 C447.126,767.635 491.897,812.407 491.897,867.635 C491.897,922.864 447.126,967.635 391.897,967.635 z" fill-opacity="0" stroke="#65A1CF" stroke-width="50"/>
    <g>
      <path d="M301.695,825.102 L120.433,740.578" fill-opacity="0" stroke="#65A1CF" stroke-width="33"/>
      <g>
        <path d="M138.131,748.831 C133.463,758.841 121.563,763.173 111.552,758.505 C101.542,753.836 97.211,741.937 101.879,731.926 C106.547,721.915 118.446,717.584 128.457,722.252 C138.468,726.92 142.799,738.82 138.131,748.831 z" fill="#65A1CF"/>
        <path d="M138.131,748.831 C133.463,758.841 121.563,763.173 111.552,758.505 C101.542,753.836 97.211,741.937 101.879,731.926 C106.547,721.915 118.446,717.584 128.457,722.252 C138.468,726.92 142.799,738.82 138.131,748.831 z" fill-opacity="0" stroke="#65A1CF" stroke-width="20"/>
      </g>
    </g>
    <g>
      <path d="M327.922,790.922 L285.498,740.363" fill-opacity="0" stroke="#65A1CF" stroke-width="33"/>
      <g>
        <path d="M298.05,755.321 C289.589,762.421 276.974,761.318 269.874,752.856 C262.774,744.395 263.877,731.78 272.339,724.68 C280.8,717.58 293.415,718.683 300.515,727.145 C307.615,735.606 306.512,748.221 298.05,755.321 z" fill="#65A1CF"/>
        <path d="M298.05,755.321 C289.589,762.421 276.974,761.318 269.874,752.856 C262.774,744.395 263.877,731.78 272.339,724.68 C280.8,717.58 293.415,718.683 300.515,727.145 C307.615,735.606 306.512,748.221 298.05,755.321 z" fill-opacity="0" stroke="#65A1CF" stroke-width="20"/>
      </g>
    </g>
    <g>
      <path d="M417.657,963.299 L452.08,1091.768" fill-opacity="0" stroke="#65A1CF" stroke-width="33"/>
      <g>
        <path d="M447.026,1072.906 C457.695,1070.047 468.662,1076.378 471.521,1087.048 C474.379,1097.717 468.048,1108.684 457.378,1111.543 C446.709,1114.401 435.742,1108.07 432.884,1097.401 C430.025,1086.731 436.356,1075.765 447.026,1072.906 z" fill="#65A1CF"/>
        <path d="M447.026,1072.906 C457.695,1070.047 468.662,1076.378 471.521,1087.048 C474.379,1097.717 468.048,1108.684 457.378,1111.543 C446.709,1114.401 435.742,1108.07 432.884,1097.401 C430.025,1086.731 436.356,1075.765 447.026,1072.906 z" fill-opacity="0" stroke="#65A1CF" stroke-width="20"/>
      </g>
    </g>
    <path d="M1010.239,972.603 C955.011,972.603 910.239,927.832 910.239,872.603 C910.239,817.375 955.011,772.603 1010.239,772.603 C1065.468,772.603 1110.239,817.375 1110.239,872.603 C1110.239,927.832 1065.468,972.603 1010.239,972.603 z" fill-opacity="0" stroke="#F0801A" stroke-width="50"/>
    <g>
      <g>
        <path d="M939.864,801.756 L798.442,660.334" fill="#F0801A"/>
        <path d="M939.864,801.756 L798.442,660.334" fill-opacity="0" stroke="#F0801A" stroke-width="33"/>
      </g>
      <g>
        <path d="M812.25,674.142 C804.44,681.953 791.777,681.953 783.966,674.142 C776.156,666.332 776.156,653.668 783.966,645.858 C791.777,638.047 804.44,638.047 812.25,645.858 C820.061,653.668 820.061,666.332 812.25,674.142 z" fill="#F0801A"/>
        <path d="M812.25,674.142 C804.44,681.953 791.777,681.953 783.966,674.142 C776.156,666.332 776.156,653.668 783.966,645.858 C791.777,638.047 804.44,638.047 812.25,645.858 C820.061,653.668 820.061,666.332 812.25,674.142 z" fill-opacity="0" stroke="#F0801A" stroke-width="20"/>
      </g>
    </g>
    <g>
      <g>
        <path d="M1010.24,772.605 L1010.24,706.605" fill="#F0801A"/>
        <path d="M1010.24,772.605 L1010.24,706.605" fill-opacity="0" stroke="#F0801A" stroke-width="33"/>
      </g>
      <g>
        <path d="M1010.24,726.132 C999.195,726.132 990.24,717.178 990.24,706.132 C990.24,695.086 999.195,686.132 1010.24,686.132 C1021.286,686.132 1030.24,695.086 1030.24,706.132 C1030.24,717.178 1021.286,726.132 1010.24,726.132 z" fill="#F0801A"/>
        <path d="M1010.24,726.132 C999.195,726.132 990.24,717.178 990.24,706.132 C990.24,695.086 999.195,686.132 1010.24,686.132 C1021.286,686.132 1030.24,695.086 1030.24,706.132 C1030.24,717.178 1021.286,726.132 1010.24,726.132 z" fill-opacity="0" stroke="#F0801A" stroke-width="20"/>
      </g>
    </g>
    <g>
      <g>
        <path d="M939.864,942.508 L845.819,1036.553" fill="#F0801A"/>
        <path d="M939.864,942.508 L845.819,1036.553" fill-opacity="0" stroke="#F0801A" stroke-width="33"/>
      </g>
      <g>
        <path d="M859.627,1022.746 C867.437,1030.556 867.437,1043.219 859.627,1051.03 C851.816,1058.84 839.153,1058.84 831.342,1051.03 C823.532,1043.219 823.532,1030.556 831.342,1022.746 C839.153,1014.935 851.816,1014.935 859.627,1022.746 z" fill="#F0801A"/>
        <path d="M859.627,1022.746 C867.437,1030.556 867.437,1043.219 859.627,1051.03 C851.816,1058.84 839.153,1058.84 831.342,1051.03 C823.532,1043.219 823.532,1030.556 831.342,1022.746 C839.153,1014.935 851.816,1014.935 859.627,1022.746 z" fill-opacity="0" stroke="#F0801A" stroke-width="20"/>
      </g>
    </g>
    <text transform="matrix(1, 0, 0, 1, 600.5, 1182.5)">
      <tspan x="-332.287" y="13.5" font-family="Verdana-Bold" font-size="36" fill="#294270">checkio([1,2,3],[3,1,2],[2,3,1]])</tspan>
    </text>
  </g>
  <defs/>
</svg>
