<?xml version="1.0" encoding="UTF-8"?>
<!DOCTYPE svg PUBLIC "-//W3C//DTD SVG 1.1//EN" "http://www.w3.org/Graphics/SVG/1.1/DTD/svg11.dtd">
<svg version="1.1" xmlns="http://www.w3.org/2000/svg" xmlns:xlink="http://www.w3.org/1999/xlink" x="0px" y="0px" width="1200" height="1500" viewBox="0, 0, 1200, 1500">
  <g id="Background">
    <rect x="0" y="0" width="1200" height="1500" fill="#000000" fill-opacity="0"/>
  </g>
  <g id="Layer 1">
    <path d="M199.5,510.501 C144.271,510.501 99.5,464.364 99.5,409.135 C99.5,353.907 144.271,310.501 199.5,310.501 C254.728,310.501 299.5,353.907 299.5,409.135 C299.5,464.364 254.728,510.501 199.5,510.501 z" fill-opacity="0" stroke="#8FC7ED" stroke-width="50"/>
    <g>
      <path d="M80.5,405.714" fill="#8FC7ED"/>
      <path d="M80.5,405.714" fill-opacity="0" stroke="#8FC7ED" stroke-width="50"/>
    </g>
    <g>
      <g>
        <path d="M301.21,412.211 L391.21,412.211" fill="#8FC7ED"/>
        <path d="M301.21,412.211 L391.21,412.211" fill-opacity="0" stroke="#8FC7ED" stroke-width="30"/>
      </g>
      <g>
        <path d="M417.484,398.069 C425.295,405.879 425.295,418.543 417.484,426.353 C409.674,434.164 397.011,434.164 389.2,426.353 C381.39,418.543 381.39,405.879 389.2,398.069 C397.011,390.258 409.674,390.258 417.484,398.069 z" fill="#8FC7ED"/>
        <path d="M417.484,398.069 C425.295,405.879 425.295,418.543 417.484,426.353 C409.674,434.164 397.011,434.164 389.2,426.353 C381.39,418.543 381.39,405.879 389.2,398.069 C397.011,390.258 409.674,390.258 417.484,398.069 z" fill-opacity="0" stroke="#8FC7ED" stroke-width="20"/>
      </g>
    </g>
    <g>
      <g>
        <path d="M199.5,310.5 L199.5,170.5" fill="#8FC7ED"/>
        <path d="M199.5,310.5 L199.5,170.5" fill-opacity="0" stroke="#8FC7ED" stroke-width="30"/>
      </g>
      <g>
        <path d="M199.5,180.5 C188.454,180.5 179.5,171.546 179.5,160.5 C179.5,149.454 188.454,140.5 199.5,140.5 C210.545,140.5 219.5,149.454 219.5,160.5 C219.5,171.546 210.545,180.5 199.5,180.5 z" fill="#8FC7ED"/>
        <path d="M199.5,180.5 C188.454,180.5 179.5,171.546 179.5,160.5 C179.5,149.454 188.454,140.5 199.5,140.5 C210.545,140.5 219.5,149.454 219.5,160.5 C219.5,171.546 210.545,180.5 199.5,180.5 z" fill-opacity="0" stroke="#8FC7ED" stroke-width="20"/>
      </g>
    </g>
    <g>
      <g>
        <path d="M199.5,510.5 L199.5,710.5" fill="#8FC7ED"/>
        <path d="M199.5,510.5 L199.5,710.5" fill-opacity="0" stroke="#8FC7ED" stroke-width="30"/>
      </g>
      <g>
        <path d="M213.642,715.769 C221.452,723.58 221.452,736.243 213.642,744.053 C205.831,751.864 193.168,751.864 185.358,744.053 C177.547,736.243 177.547,723.58 185.358,715.769 C193.168,707.959 205.831,707.959 213.642,715.769 z" fill="#8FC7ED"/>
        <path d="M213.642,715.769 C221.452,723.58 221.452,736.243 213.642,744.053 C205.831,751.864 193.168,751.864 185.358,744.053 C177.547,736.243 177.547,723.58 185.358,715.769 C193.168,707.959 205.831,707.959 213.642,715.769 z" fill-opacity="0" stroke="#8FC7ED" stroke-width="20"/>
      </g>
    </g>
    <path d="M958.901,599.806 C903.672,599.806 858.901,553.669 858.901,498.441 C858.901,443.212 903.672,399.806 958.901,399.806 C1014.129,399.806 1058.901,443.212 1058.901,498.441 C1058.901,553.669 1014.129,599.806 958.901,599.806 z" fill-opacity="0" stroke="#8FC7ED" stroke-width="50"/>
    <g>
      <g>
        <path d="M858.956,480.616 L770.269,465.3" fill="#8FC7ED"/>
        <path d="M858.956,480.616 L770.269,465.3" fill-opacity="0" stroke="#8FC7ED" stroke-width="30"/>
      </g>
      <g>
        <path d="M741.971,474.765 C735.604,465.739 737.759,453.26 746.785,446.893 C755.811,440.526 768.289,442.681 774.657,451.706 C781.024,460.732 778.869,473.211 769.843,479.578 C760.817,485.945 748.339,483.79 741.971,474.765 z" fill="#8FC7ED"/>
        <path d="M741.971,474.765 C735.604,465.739 737.759,453.26 746.785,446.893 C755.811,440.526 768.289,442.681 774.657,451.706 C781.024,460.732 778.869,473.211 769.843,479.578 C760.817,485.945 748.339,483.79 741.971,474.765 z" fill-opacity="0" stroke="#8FC7ED" stroke-width="20"/>
      </g>
    </g>
    <g>
      <g>
        <path d="M990.253,405.172 L1038.297,273.674" fill="#8FC7ED"/>
        <path d="M990.253,405.172 L1038.297,273.674" fill-opacity="0" stroke="#8FC7ED" stroke-width="30"/>
      </g>
      <g>
        <path d="M1034.866,283.067 C1024.491,279.276 1019.153,267.793 1022.944,257.418 C1026.734,247.043 1038.218,241.705 1048.593,245.496 C1058.967,249.286 1064.305,260.77 1060.515,271.145 C1056.724,281.52 1045.24,286.857 1034.866,283.067 z" fill="#8FC7ED"/>
        <path d="M1034.866,283.067 C1024.491,279.276 1019.153,267.793 1022.944,257.418 C1026.734,247.043 1038.218,241.705 1048.593,245.496 C1058.967,249.286 1064.305,260.77 1060.515,271.145 C1056.724,281.52 1045.24,286.857 1034.866,283.067 z" fill-opacity="0" stroke="#8FC7ED" stroke-width="20"/>
      </g>
    </g>
    <g>
      <g>
        <path d="M1010.088,413.752 L1110.088,240.547" fill="#8FC7ED"/>
        <path d="M1010.088,413.752 L1110.088,240.547" fill-opacity="0" stroke="#8FC7ED" stroke-width="30"/>
      </g>
      <g>
        <path d="M1100.475,228.912 C1097.616,218.243 1103.948,207.276 1114.617,204.417 C1125.286,201.559 1136.253,207.89 1139.112,218.56 C1141.971,229.229 1135.639,240.196 1124.97,243.054 C1114.301,245.913 1103.334,239.582 1100.475,228.912 z" fill="#8FC7ED"/>
        <path d="M1100.475,228.912 C1097.616,218.243 1103.948,207.276 1114.617,204.417 C1125.286,201.559 1136.253,207.89 1139.112,218.56 C1141.971,229.229 1135.639,240.196 1124.97,243.054 C1114.301,245.913 1103.334,239.582 1100.475,228.912 z" fill-opacity="0" stroke="#8FC7ED" stroke-width="20"/>
      </g>
    </g>
    <path d="M995.088,1337.541 C939.859,1337.541 895.088,1291.404 895.088,1236.176 C895.088,1180.947 939.859,1137.541 995.088,1137.541 C1050.316,1137.541 1095.088,1180.947 1095.088,1236.176 C1095.088,1291.404 1050.316,1337.541 995.088,1337.541 z" fill-opacity="0" stroke="#F0801A" stroke-width="50"/>
    <g>
      <path d="M876.088,1232.754" fill="#8FC7ED"/>
      <path d="M876.088,1232.754" fill-opacity="0" stroke="#F0801A" stroke-width="50"/>
    </g>
    <g>
      <g>
        <path d="M995.975,1137.047 L995.975,1047.047" fill="#F0801A"/>
        <path d="M995.975,1137.047 L995.975,1047.047" fill-opacity="0" stroke="#F0801A" stroke-width="30"/>
      </g>
      <g>
        <path d="M981.833,1020.773 C989.644,1012.962 1002.307,1012.962 1010.118,1020.773 C1017.928,1028.583 1017.928,1041.246 1010.118,1049.057 C1002.307,1056.867 989.644,1056.867 981.833,1049.057 C974.023,1041.246 974.023,1028.583 981.833,1020.773 z" fill="#F0801A"/>
        <path d="M981.833,1020.773 C989.644,1012.962 1002.307,1012.962 1010.118,1020.773 C1017.928,1028.583 1017.928,1041.246 1010.118,1049.057 C1002.307,1056.867 989.644,1056.867 981.833,1049.057 C974.023,1041.246 974.023,1028.583 981.833,1020.773 z" fill-opacity="0" stroke="#F0801A" stroke-width="20"/>
      </g>
    </g>
    <g>
      <g>
        <path d="M925.836,1308.023 L826.771,1406.948" fill="#F0801A"/>
        <path d="M925.836,1308.023 L826.771,1406.948" fill-opacity="0" stroke="#F0801A" stroke-width="30"/>
      </g>
      <g>
        <path d="M833.847,1399.882 C841.652,1407.698 841.643,1420.361 833.827,1428.166 C826.011,1435.971 813.348,1435.962 805.543,1428.146 C797.738,1420.33 797.747,1407.667 805.562,1399.862 C813.378,1392.057 826.042,1392.066 833.847,1399.882 z" fill="#F0801A"/>
        <path d="M833.847,1399.882 C841.652,1407.698 841.643,1420.361 833.827,1428.166 C826.011,1435.971 813.348,1435.962 805.543,1428.146 C797.738,1420.33 797.747,1407.667 805.562,1399.862 C813.378,1392.057 826.042,1392.066 833.847,1399.882 z" fill-opacity="0" stroke="#F0801A" stroke-width="20"/>
      </g>
    </g>
    <g>
      <g>
        <path d="M925.647,1165.647 L784.226,1024.226" fill="#F0801A"/>
        <path d="M925.647,1165.647 L784.226,1024.226" fill-opacity="0" stroke="#F0801A" stroke-width="30"/>
      </g>
      <g>
        <path d="M770.5,1030.5 C759.454,1030.5 750.5,1021.546 750.5,1010.5 C750.5,999.454 759.454,990.5 770.5,990.5 C781.546,990.5 790.5,999.454 790.5,1010.5 C790.5,1021.546 781.546,1030.5 770.5,1030.5 z" fill="#F0801A"/>
        <path d="M770.5,1030.5 C759.454,1030.5 750.5,1021.546 750.5,1010.5 C750.5,999.454 759.454,990.5 770.5,990.5 C781.546,990.5 790.5,999.454 790.5,1010.5 C790.5,1021.546 781.546,1030.5 770.5,1030.5 z" fill-opacity="0" stroke="#F0801A" stroke-width="20"/>
      </g>
    </g>
    <text transform="matrix(1, 0, 0, 1, 238.202, 72.5)">
      <tspan x="-198.202" y="13.5" font-family="Verdana-Bold" font-size="36" fill="#294270">checkio(90, 0, 180)</tspan>
    </text>
    <text transform="matrix(1, 0, 0, 1, 826.82, 206.384)">
      <tspan x="-94.764" y="-54" font-family="Verdana-Bold" font-size="36" fill="#294270">first -170</tspan>
      <tspan x="-84.19" y="-10" font-family="Verdana-Bold" font-size="36" fill="#294270">Related:</tspan>
      <tspan x="-124.172" y="34" font-family="Verdana-Bold" font-size="36" fill="#294270">second -340</tspan>
      <tspan x="-101.892" y="78" font-family="Verdana-Bold" font-size="36" fill="#294270">third -510</tspan>
    </text>
    <text transform="matrix(1, 0, 0, 1, 960.089, 910)">
      <tspan x="-80.455" y="-54" font-family="Verdana-Bold" font-size="36" fill="#294270">third 25</tspan>
      <tspan x="-84.19" y="-10" font-family="Verdana-Bold" font-size="36" fill="#294270">Related:</tspan>
      <tspan x="-73.327" y="34" font-family="Verdana-Bold" font-size="36" fill="#294270">first 50</tspan>
      <tspan x="-102.735" y="78" font-family="Verdana-Bold" font-size="36" fill="#294270">second 75</tspan>
    </text>
    <text transform="matrix(1, 0, 0, 1, 230.089, 910)">
      <tspan x="-115.532" y="-54" font-family="Verdana-Bold" font-size="36" fill="#294270">second 130</tspan>
      <tspan x="-84.19" y="-10" font-family="Verdana-Bold" font-size="36" fill="#294270">Related:</tspan>
      <tspan x="-86.124" y="34" font-family="Verdana-Bold" font-size="36" fill="#294270">first 390</tspan>
      <tspan x="-93.252" y="78" font-family="Verdana-Bold" font-size="36" fill="#294270">third 260</tspan>
    </text>
    <path d="M995.975,1137.047" fill-opacity="0" stroke="#000000" stroke-width="1"/>
    <path d="M354.616,1301.85 C299.388,1301.85 254.616,1255.713 254.616,1200.485 C254.616,1145.256 299.388,1101.85 354.616,1101.85 C409.845,1101.85 454.616,1145.256 454.616,1200.485 C454.616,1255.713 409.845,1301.85 354.616,1301.85 z" fill-opacity="0" stroke="#8FC7ED" stroke-width="50"/>
    <g>
      <path d="M235.616,1197.063" fill="#8FC7ED"/>
      <path d="M235.616,1197.063" fill-opacity="0" stroke="#8FC7ED" stroke-width="50"/>
    </g>
    <g>
      <g>
        <path d="M279.272,1135.321 L210.55,1077.206" fill="#8FC7ED"/>
        <path d="M279.272,1135.321 L210.55,1077.206" fill-opacity="0" stroke="#8FC7ED" stroke-width="30"/>
      </g>
      <g>
        <path d="M181.355,1071.039 C180.435,1060.032 188.612,1050.363 199.619,1049.442 C210.626,1048.522 220.296,1056.698 221.216,1067.706 C222.137,1078.713 213.96,1088.382 202.953,1089.303 C191.945,1090.224 182.276,1082.047 181.355,1071.039 z" fill="#8FC7ED"/>
        <path d="M181.355,1071.039 C180.435,1060.032 188.612,1050.363 199.619,1049.442 C210.626,1048.522 220.296,1056.698 221.216,1067.706 C222.137,1078.713 213.96,1088.382 202.953,1089.303 C191.945,1090.224 182.276,1082.047 181.355,1071.039 z" fill-opacity="0" stroke="#8FC7ED" stroke-width="20"/>
      </g>
    </g>
    <g>
      <g>
        <path d="M406.574,1285.234 L476.587,1406.47" fill="#8FC7ED"/>
        <path d="M406.574,1285.234 L476.587,1406.47" fill-opacity="0" stroke="#8FC7ED" stroke-width="30"/>
      </g>
      <g>
        <path d="M471.586,1397.81 C481.151,1392.286 493.384,1395.562 498.907,1405.128 C504.431,1414.693 501.155,1426.925 491.59,1432.449 C482.024,1437.973 469.792,1434.697 464.268,1425.131 C458.745,1415.566 462.021,1403.334 471.586,1397.81 z" fill="#8FC7ED"/>
        <path d="M471.586,1397.81 C481.151,1392.286 493.384,1395.562 498.907,1405.128 C504.431,1414.693 501.155,1426.925 491.59,1432.449 C482.024,1437.973 469.792,1434.697 464.268,1425.131 C458.745,1415.566 462.021,1403.334 471.586,1397.81 z" fill-opacity="0" stroke="#8FC7ED" stroke-width="20"/>
      </g>
    </g>
    <g>
      <g>
        <path d="M262.355,1165.209 L74.04,1097.848" fill="#8FC7ED"/>
        <path d="M262.355,1165.209 L74.04,1097.848" fill-opacity="0" stroke="#8FC7ED" stroke-width="30"/>
      </g>
      <g>
        <path d="M64.315,1109.389 C54.331,1114.113 42.407,1109.847 37.684,1099.863 C32.96,1089.878 37.225,1077.954 47.21,1073.231 C57.195,1068.507 69.118,1072.772 73.842,1082.757 C78.565,1092.742 74.3,1104.665 64.315,1109.389 z" fill="#8FC7ED"/>
        <path d="M64.315,1109.389 C54.331,1114.113 42.407,1109.847 37.684,1099.863 C32.96,1089.878 37.225,1077.954 47.21,1073.231 C57.195,1068.507 69.118,1072.772 73.842,1082.757 C78.565,1092.742 74.3,1104.665 64.315,1109.389 z" fill-opacity="0" stroke="#8FC7ED" stroke-width="20"/>
      </g>
    </g>
  </g>
  <defs/>
</svg>
