<?xml version="1.0" encoding="UTF-8"?>
<!DOCTYPE svg PUBLIC "-//W3C//DTD SVG 1.1//EN" "http://www.w3.org/Graphics/SVG/1.1/DTD/svg11.dtd">
<svg version="1.1" xmlns="http://www.w3.org/2000/svg" xmlns:xlink="http://www.w3.org/1999/xlink" x="0px" y="0px" width="128" height="128" viewBox="0, 0, 128, 128">
  <g id="Background">
    <rect x="0" y="0" width="128" height="128" fill="#000000" fill-opacity="0"/>
  </g>
  <g id="Background">
    <path d="M18.093,6 L109.907,6 C116.561,6 122,11.439 122,18.093 L122,109.907 C122,116.561 116.561,122 109.907,122 L18.093,122 C11.439,122 6,116.561 6,109.907 L6,18.093 C6,11.439 11.439,6 18.093,6" fill="#727272"/>
    <path d="M64,72.384 C69.823,72.384 75.426,73.325 80.669,75.047 L89.122,56.473 C86.844,54.212 85.433,51.076 85.433,47.609 C85.433,40.708 91.026,35.114 97.927,35.114 C104.827,35.114 110.423,40.708 110.423,47.609 C110.423,54.509 104.827,60.104 97.927,60.104 L96.991,60.067 L88.642,78.413 C104.006,86.428 114.976,101.705 116.999,119.688 C115.008,121.141 112.551,122 109.907,122 L97.936,122 C96.082,104.896 81.597,91.579 64,91.579 C46.403,91.579 31.916,104.896 30.062,122 L18.093,122 C15.449,122 12.995,121.141 11.001,119.688 C13.147,100.654 25.309,84.646 42.092,77.079 L33.405,51.029 L33.315,51.029 C26.414,51.029 20.819,45.435 20.819,38.535 C20.819,31.634 26.414,26.039 33.315,26.039 C40.215,26.039 45.809,31.634 45.809,38.535 C45.809,42.302 44.143,45.677 41.507,47.969 L50.244,74.179 C54.633,73.011 59.241,72.384 64,72.384" fill="#EBEDED"/>
  </g>
  <defs/>
</svg>
